<?xml version="1.0" standalone="no"?>
<!DOCTYPE svg PUBLIC "-//W3C//DTD SVG 20010904//EN"
 "http://www.w3.org/TR/2001/REC-SVG-20010904/DTD/svg10.dtd">
<svg version="1.0" xmlns="http://www.w3.org/2000/svg"
 width="700.000000pt" height="700.000000pt" viewBox="0 0 700.000000 700.000000"
 preserveAspectRatio="xMidYMid meet">
<metadata>
Created by potrace 1.11, written by Peter Selinger 2001-2013
</metadata>
<g transform="translate(0.000000,700.000000) scale(0.100000,-0.100000)"
fill="#000000" stroke="none">
<path d="M3358 6995 c-2 -2 -28 -6 -58 -9 -230 -21 -525 -136 -735 -286 -108
-76 -281 -246 -357 -350 -69 -93 -148 -231 -186 -324 -35 -84 -45 -109 -47
-116 -1 -3 -4 -12 -8 -20 -14 -36 -57 -231 -66 -300 -5 -41 -10 -376 -10 -744
-1 -368 -3 -672 -6 -675 -3 -2 -69 -5 -148 -6 -185 -3 -267 -24 -387 -100 -86
-55 -177 -155 -222 -246 -72 -144 -68 -32 -65 -1759 l2 -1555 22 -65 c66 -191
210 -337 405 -408 l73 -27 1935 0 1935 0 73 27 c198 72 344 222 405 413 l22
70 0 1570 c0 1423 -2 1575 -16 1620 -68 210 -212 360 -409 426 -86 29 -107 31
-243 34 -81 1 -150 4 -152 7 -2 2 -6 318 -8 703 -2 385 -7 720 -11 745 -43
272 -154 533 -319 750 -67 88 -227 245 -319 313 -97 72 -249 157 -361 202 -86
35 -275 86 -367 100 -47 7 -366 16 -372 10z m347 -580 c401 -83 710 -379 814
-781 23 -87 26 -179 26 -814 l0 -654 -1035 -1 c-569 0 -1040 1 -1047 3 -14 4
-15 1234 -1 1352 32 272 190 544 412 707 147 109 333 184 491 200 33 3 61 7
63 8 9 8 211 -7 277 -20z m-55 -3281 c145 -41 247 -117 330 -246 115 -177 116
-428 1 -605 -37 -58 -136 -163 -153 -163 -4 0 -9 -197 -10 -437 -3 -428 -4
-439 -25 -483 -69 -142 -218 -215 -365 -180 -96 23 -174 87 -219 178 -24 47
-24 50 -29 484 l-5 436 -30 24 c-98 77 -181 213 -204 336 -56 292 133 592 414
656 39 8 79 17 90 19 40 6 151 -4 205 -19z"/>
</g>
</svg>
